HIERARCHY
ROOT reference
{
  OFFSET -65.3212 -1.93545 -120.338
  CHANNELS 6 Xposition Yposition Zposition Zrotation Xrotation Yrotation
  JOINT Hips
  {
    OFFSET 0 78.7191 0
    CHANNELS 6 Xposition Yposition Zposition Zrotation Xrotation Yrotation
    JOINT Chest
    {
      OFFSET 0 8.7983 -4.7612
      CHANNELS 6 Xposition Yposition Zposition Zrotation Xrotation Yrotation
      JOINT Chest2
      {
        OFFSET 0 8.0291 0.4195
        CHANNELS 6 Xposition Yposition Zposition Zrotation Xrotation Yrotation
        JOINT Chest3
        {
          OFFSET 0 9.9351 -2.2114
          CHANNELS 6 Xposition Yposition Zposition Zrotation Xrotation Yrotation
          JOINT Neck
          {
            OFFSET 0 22.3885 -0.4656
            CHANNELS 6 Xposition Yposition Zposition Zrotation Xrotation Yrotation
            JOINT Head
            {
              OFFSET -0.0001 12.643 3.4389
              CHANNELS 6 Xposition Yposition Zposition Zrotation Xrotation Yrotation
              End Site
              {
                OFFSET 0.0001 17.6655 0.5274
              }
            }
          }
          JOINT LeftCollar
          {
            OFFSET 2.2603 21.606 7.4023
            CHANNELS 6 Xposition Yposition Zposition Zrotation Xrotation Yrotation
            JOINT LeftShoulder
            {
              OFFSET 13.5163 -1.1332 -5.0146
              CHANNELS 6 Xposition Yposition Zposition Zrotation Xrotation Yrotation
              JOINT LeftElbow
              {
                OFFSET -0.0995 -28.05 -0.2431
                CHANNELS 6 Xposition Yposition Zposition Zrotation Xrotation Yrotation
                JOINT LeftWrist
                {
                  OFFSET 0.0679 -23.3996 -0.1402
                  CHANNELS 6 Xposition Yposition Zposition Zrotation Xrotation Yrotation
                  JOINT LeftFinger1
                  {
                    OFFSET 0.7932 -9.069 2.5189
                    CHANNELS 6 Xposition Yposition Zposition Zrotation Xrotation Yrotation
                    JOINT LeftFinger11
                    {
                      OFFSET -0.8272 -3.3923 0.5977
                      CHANNELS 6 Xposition Yposition Zposition Zrotation Xrotation Yrotation
                      JOINT LeftFinger12
                      {
                        OFFSET -0.5649 -2.3158 0.4082
                        CHANNELS 6 Xposition Yposition Zposition Zrotation Xrotation Yrotation
                        End Site
                        {
                          OFFSET -0.4919 -1.6479 0.2673
                        }
                      }
                    }
                  }
                  JOINT LeftFinger2
                  {
                    OFFSET 0.9159 -9.2044 0.2193
                    CHANNELS 6 Xposition Yposition Zposition Zrotation Xrotation Yrotation
                    JOINT LeftFinger21
                    {
                      OFFSET 0.0117 -4.1944 -0.0248
                      CHANNELS 6 Xposition Yposition Zposition Zrotation Xrotation Yrotation
                      JOINT LeftFinger22
                      {
                        OFFSET 0.0071 -2.3249 -0.0142
                        CHANNELS 6 Xposition Yposition Zposition Zrotation Xrotation Yrotation
                        End Site
                        {
                          OFFSET -0.1475 -2.0882 0.0028
                        }
                      }
                    }
                  }
                  JOINT LeftFinger3
                  {
                    OFFSET 0.6113 -8.7231 -2.0637
                    CHANNELS 6 Xposition Yposition Zposition Zrotation Xrotation Yrotation
                    JOINT LeftFinger31
                    {
                      OFFSET -0.1927 -3.8059 -0.2383
                      CHANNELS 6 Xposition Yposition Zposition Zrotation Xrotation Yrotation
                      JOINT LeftFinger32
                      {
                        OFFSET -0.1091 -2.1688 -0.1362
                        CHANNELS 6 Xposition Yposition Zposition Zrotation Xrotation Yrotation
                        End Site
                        {
                          OFFSET -0.2358 -1.9176 -0.0906
                        }
                      }
                    }
                  }
                  JOINT LeftFinger4
                  {
                    OFFSET -0.6151 -8.0947 -3.5641
                    CHANNELS 6 Xposition Yposition Zposition Zrotation Xrotation Yrotation
                    JOINT LeftFinger41
                    {
                      OFFSET -0.4882 -2.341 -0.6462
                      CHANNELS 6 Xposition Yposition Zposition Zrotation Xrotation Yrotation
                      JOINT LeftFinger42
                      {
                        OFFSET -0.3575 -1.7167 -0.4742
                        CHANNELS 6 Xposition Yposition Zposition Zrotation Xrotation Yrotation
                        End Site
                        {
                          OFFSET -0.4187 -1.5237 -0.3496
                        }
                      }
                    }
                  }
                  JOINT LeftFinger0
                  {
                    OFFSET -1.42 -1.8761 1.4223
                    CHANNELS 6 Xposition Yposition Zposition Zrotation Xrotation Yrotation
                    JOINT LeftFinger01
                    {
                      OFFSET -1.1471 -3.4929 2.6334
                      CHANNELS 6 Xposition Yposition Zposition Zrotation Xrotation Yrotation
                      JOINT LeftFinger02
                      {
                        OFFSET -0.823 -2.3 1.6571
                        CHANNELS 6 Xposition Yposition Zposition Zrotation Xrotation Yrotation
                        End Site
                        {
                          OFFSET -0.5822 -1.6914 1.1582
                        }
                      }
                    }
                  }
                }
              }
            }
          }
          JOINT RightCollar
          {
            OFFSET -2.2603 21.606 7.4023
            CHANNELS 6 Xposition Yposition Zposition Zrotation Xrotation Yrotation
            JOINT RightShoulder
            {
              OFFSET -13.5187 -1.1334 -5.0155
              CHANNELS 6 Xposition Yposition Zposition Zrotation Xrotation Yrotation
              JOINT RightElbow
              {
                OFFSET 0.0994 -28.0499 -0.2431
                CHANNELS 6 Xposition Yposition Zposition Zrotation Xrotation Yrotation
                JOINT RightWrist
                {
                  OFFSET -0.0679 -23.3996 -0.1402
                  CHANNELS 6 Xposition Yposition Zposition Zrotation Xrotation Yrotation
                  JOINT RightFinger1
                  {
                    OFFSET -0.7932 -9.0691 2.5189
                    CHANNELS 6 Xposition Yposition Zposition Zrotation Xrotation Yrotation
                    JOINT RightFinger11
                    {
                      OFFSET 0.8272 -3.3923 0.5977
                      CHANNELS 6 Xposition Yposition Zposition Zrotation Xrotation Yrotation
                      JOINT RightFinger12
                      {
                        OFFSET 0.565 -2.3158 0.4082
                        CHANNELS 6 Xposition Yposition Zposition Zrotation Xrotation Yrotation
                        End Site
                        {
                          OFFSET 0.4919 -1.6479 0.2673
                        }
                      }
                    }
                  }
                  JOINT RightFinger2
                  {
                    OFFSET -0.916 -9.2044 0.2193
                    CHANNELS 6 Xposition Yposition Zposition Zrotation Xrotation Yrotation
                    JOINT RightFinger21
                    {
                      OFFSET -0.0117 -4.1944 -0.0248
                      CHANNELS 6 Xposition Yposition Zposition Zrotation Xrotation Yrotation
                      JOINT RightFinger22
                      {
                        OFFSET -0.0071 -2.3249 -0.0142
                        CHANNELS 6 Xposition Yposition Zposition Zrotation Xrotation Yrotation
                        End Site
                        {
                          OFFSET 0.1475 -2.0882 0.0028
                        }
                      }
                    }
                  }
                  JOINT RightFinger3
                  {
                    OFFSET -0.6113 -8.7231 -2.0637
                    CHANNELS 6 Xposition Yposition Zposition Zrotation Xrotation Yrotation
                    JOINT RightFinger31
                    {
                      OFFSET 0.1927 -3.8059 -0.2383
                      CHANNELS 6 Xposition Yposition Zposition Zrotation Xrotation Yrotation
                      JOINT RightFinger32
                      {
                        OFFSET 0.1091 -2.1688 -0.1362
                        CHANNELS 6 Xposition Yposition Zposition Zrotation Xrotation Yrotation
                        End Site
                        {
                          OFFSET 0.2358 -1.9176 -0.0906
                        }
                      }
                    }
                  }
                  JOINT RightFinger4
                  {
                    OFFSET 0.6151 -8.0947 -3.564
                    CHANNELS 6 Xposition Yposition Zposition Zrotation Xrotation Yrotation
                    JOINT RightFinger41
                    {
                      OFFSET 0.4882 -2.341 -0.6462
                      CHANNELS 6 Xposition Yposition Zposition Zrotation Xrotation Yrotation
                      JOINT RightFinger42
                      {
                        OFFSET 0.3574 -1.7166 -0.4742
                        CHANNELS 6 Xposition Yposition Zposition Zrotation Xrotation Yrotation
                        End Site
                        {
                          OFFSET 0.4187 -1.5237 -0.3496
                        }
                      }
                    }
                  }
                  JOINT RightFinger0
                  {
                    OFFSET 1.4199 -1.8761 1.4221
                    CHANNELS 6 Xposition Yposition Zposition Zrotation Xrotation Yrotation
                    JOINT RightFinger01
                    {
                      OFFSET 1.1472 -3.4929 2.6336
                      CHANNELS 6 Xposition Yposition Zposition Zrotation Xrotation Yrotation
                      JOINT RightFinger02
                      {
                        OFFSET 0.8229 -2.3 1.6571
                        CHANNELS 6 Xposition Yposition Zposition Zrotation Xrotation Yrotation
                        End Site
                        {
                          OFFSET 0.5822 -1.6914 1.1582
                        }
                      }
                    }
                  }
                }
              }
            }
          }
        }
      }
    }
    JOINT RightHip
    {
      OFFSET -9.412 3.9771 -0.7758
      CHANNELS 6 Xposition Yposition Zposition Zrotation Xrotation Yrotation
      JOINT RightKnee
      {
        OFFSET -0.7531 -40.938 0
        CHANNELS 6 Xposition Yposition Zposition Zrotation Xrotation Yrotation
        JOINT RightAnkle
        {
          OFFSET 0 -40.1986 0
          CHANNELS 6 Xposition Yposition Zposition Zrotation Xrotation Yrotation
          JOINT RightToe
          {
            OFFSET 0 -4.4182 9.239
            CHANNELS 6 Xposition Yposition Zposition Zrotation Xrotation Yrotation
            End Site
            {
              OFFSET 0 0 6.1981
            }
          }
        }
      }
    }
    JOINT LeftHip
    {
      OFFSET 9.4119 3.9773 -0.7758
      CHANNELS 6 Xposition Yposition Zposition Zrotation Xrotation Yrotation
      JOINT LeftKnee
      {
        OFFSET 0.7532 -40.9383 0
        CHANNELS 6 Xposition Yposition Zposition Zrotation Xrotation Yrotation
        JOINT LeftAnkle
        {
          OFFSET 0 -40.1986 0
          CHANNELS 6 Xposition Yposition Zposition Zrotation Xrotation Yrotation
          JOINT LeftToe
          {
            OFFSET 0 -4.4182 9.239
            CHANNELS 6 Xposition Yposition Zposition Zrotation Xrotation Yrotation
            End Site
            {
              OFFSET 0 0 6.1981
            }
          }
        }
      }
    }
  }
}
MOTION
Frames:	4
Frame Time:	0.0333333
21.4525 -65.5353 -49.2429 0 0 -0 3.55271e-015 78.7191 0 12.7998 10.1781 -55.1364 0 8.7983 -4.7612 -0.152906 -2.78443 1.52626 -3.55271e-015 8.0291 0.4195 -0.231806 -5.57195 3.05057 0 9.9351 -2.2114 -0.231804 -5.57194 3.05056 0 22.3885 -0.4656 0.173764 0.714199 -4.39516 -0.0001 12.643 3.4389 6.57719 -0.317223 -2.2509 2.2603 21.606 7.4023 2.95989 -2.02064 -30.3109 13.5163 -1.1332 -5.0146 43.502 -43.8471 23.0439 -0.0995 -28.05 -0.2431 -4.56927 -59.5029 15.8128 0.0679 -23.3996 -0.1402 5.80968 7.85525 22.8574 0.7932 -9.069 2.5189 -3.03607 13.5265 -2.18704 -0.8272 -3.3923 0.5977 -35.3164 20.4566 4.66817 -0.5649 -2.3158 0.4082 -36.3887 20.9687 4.99557 0.9159 -9.2044 0.2193 -0.995761 1.76439 1.17295 0.0117 -4.1944 -0.0248 -42.7837 24.7469 5.54517 0.0071 -2.3249 -0.0142 -8.91097 5.62732 -0.442351 0.6113 -8.7231 -2.0637 -6.5756 6.72671 5.05895 -0.1927 -3.8059 -0.2383 -13.8818 9.68156 -0.672542 -0.1091 -2.1688 -0.1362 -15.2672 10.6403 -0.610731 -0.6151 -8.0947 -3.5641 13.8073 -0.977093 8.79146 -0.4882 -2.341 -0.6462 -17.7354 12.2742 -1.06125 -0.3575 -1.7167 -0.4742 -8.74839 6.0287 -1.00074 -1.42 -1.8761 1.4223 -11.5752 -16.7454 -49.4479 -1.1471 -3.4929 2.6334 -4.53163 0.273981 0.313058 -0.823 -2.3 1.6571 8.53069 10.6946 -3.07814 -2.2603 21.606 7.4023 -7.7605 -1.36625 37.8348 -13.5187 -1.1334 -5.0155 -87.6209 -41.9503 -55.1812 0.0994 -28.0499 -0.2431 36.2307 -47.4454 8.86455 -0.0679 -23.3996 -0.1402 -32.5888 17.3461 -43.8839 -0.7932 -9.0691 2.5189 11.6479 14.279 0.995086 0.8272 -3.3923 0.5977 44.2764 13.1569 -6.11048 0.565 -2.3158 0.4082 45.4054 13.4037 -6.38646 -0.916 -9.2044 0.2193 6.62924 3.2919 -1.2646 -0.0117 -4.1944 -0.0248 52.3753 15.6204 -6.40191 -0.0071 -2.3249 -0.0142 15.3504 5.19879 -0.333562 -0.6113 -8.7231 -2.0637 12.9293 7.02458 -5.55443 0.1927 -3.8059 -0.2383 21.1159 8.14441 -0.317295 0.1091 -2.1688 -0.1362 22.7006 8.73509 -0.460743 0.6151 -8.0947 -3.564 -8.95513 3.95752 -6.76231 0.4882 -2.341 -0.6462 25.5475 9.66341 0.0104901 0.3574 -1.7166 -0.4742 15.2476 5.79322 0.52899 1.4199 -1.8761 1.4221 9.91523 -19.9007 48.0804 1.1472 -3.4929 2.6336 1.41319 -0.442822 -1.52296 0.8229 -2.3 1.6571 -7.19738 14.537 5.60457 -9.412 3.9771 -0.7758 -43.3875 -8.30114 -6.16116 -0.7531 -40.938 -7.10543e-015 169.678 25.2744 -152.272 7.10543e-015 -40.1986 0 -2.43258 -6.37218 45.8087 0 -4.4182 9.239 -13.1934 28.273 -7.08627 9.4119 3.9773 -0.7758 50.4875 -13.9874 24.3784 0.7532 -40.9383 7.10543e-015 179.536 26.8818 178.361 0 -40.1986 0 8.12361 -12.218 -41.9308 -3.55271e-015 -4.4182 9.239 9.79694 54.2876 17.6988 
21.4772 -65.6093 -49.1855 0 0 -0 3.55271e-015 78.7191 0 12.7369 10.122 -54.9692 7.10543e-015 8.7983 -4.7612 -0.193072 -2.66974 1.45316 0 8.0291 0.4195 -0.318731 -5.34351 2.90202 -3.55271e-015 9.9351 -2.2114 -0.318731 -5.3435 2.90201 0 22.3885 -0.4656 -0.235225 0.581648 -4.1095 -0.0001 12.643 3.4389 6.99928 -0.542254 -1.92774 2.2603 21.606 7.4023 2.84292 -2.02822 -30.0436 13.5163 -1.1332 -5.0146 44.0705 -43.7734 23.2784 -0.0995 -28.05 -0.2431 -5.68746 -60.7453 15.349 0.0679 -23.3996 -0.1402 6.41754 8.56917 22.3444 0.7932 -9.069 2.5189 -3.0353 13.526 -2.18699 -0.8272 -3.3923 0.5977 -35.3132 20.4551 4.66722 -0.5649 -2.3158 0.4082 -36.3828 20.9659 4.99375 0.9159 -9.2044 0.2193 -0.996053 1.76275 1.17054 0.0117 -4.1944 -0.0248 -42.7798 24.7451 5.54382 0.0071 -2.3249 -0.0142 -8.90831 5.62563 -0.442343 0.6113 -8.7231 -2.0637 -6.57544 6.72411 5.05506 -0.1927 -3.8059 -0.2383 -13.8799 9.68028 -0.672613 -0.1091 -2.1688 -0.1362 -15.2672 10.6403 -0.610729 -0.6151 -8.0947 -3.5641 13.7971 -0.973067 8.79034 -0.4882 -2.341 -0.6462 -17.7314 12.2715 -1.0614 -0.3575 -1.7167 -0.4742 -8.74833 6.02939 -1.00287 -1.42 -1.8761 1.4223 -11.5651 -16.7367 -49.4306 -1.1471 -3.4929 2.6334 -4.53054 0.273679 0.313104 -0.823 -2.3 1.6571 8.52684 10.6901 -3.07647 -2.2603 21.606 7.4023 -8.04241 -1.41292 37.6241 -13.5187 -1.1334 -5.0155 -87.4031 -41.8522 -54.9269 0.0994 -28.0499 -0.2431 36.1926 -49.1936 9.21931 -0.0679 -23.3996 -0.1402 -32.4993 18.2993 -43.8282 -0.7932 -9.0691 2.5189 11.6424 14.268 0.993805 0.8272 -3.3923 0.5977 44.2584 13.153 -6.10611 0.565 -2.3158 0.4082 45.3868 13.3997 -6.38189 -0.916 -9.2044 0.2193 6.62922 3.2919 -1.26458 -0.0117 -4.1944 -0.0248 52.3533 15.6157 -6.39651 -0.0071 -2.3249 -0.0142 15.3372 5.19442 -0.332685 -0.6113 -8.7231 -2.0637 12.9237 7.02112 -5.54682 0.1927 -3.8059 -0.2383 21.1088 8.14171 -0.316685 0.1091 -2.1688 -0.1362 22.685 8.7293 -0.459231 0.6151 -8.0947 -3.564 -8.94313 3.95616 -6.75521 0.4882 -2.341 -0.6462 25.5294 9.65674 0.0119944 0.3574 -1.7166 -0.4742 15.2345 5.78821 0.529223 1.4199 -1.8761 1.4221 9.90482 -19.8903 48.0583 1.1472 -3.4929 2.6336 1.41177 -0.443346 -1.52147 0.8229 -2.3 1.6571 -7.18867 14.5218 5.59737 -9.412 3.9771 -0.7758 -43.8179 -8.28409 -6.07228 -0.7531 -40.938 -7.10543e-015 169.666 25.3306 -152.234 0 -40.1986 0 -2.61248 -6.05222 46.21 -1.42109e-014 -4.4182 9.239 -13.1981 28.0352 -7.13085 9.4119 3.9773 -0.7758 50.7219 -14.1063 24.0843 0.7532 -40.9383 0 179.538 26.8155 178.252 0 -40.1986 7.10543e-015 8.22579 -12.1971 -42.24 0 -4.4182 9.239 9.77964 54.3866 17.5885 
21.4872 -65.6593 -49.1087 0 0 -0 3.55271e-015 78.7191 0 12.6877 10.0483 -54.8021 0 8.7983 -4.7612 -0.233676 -2.54416 1.34718 -7.10543e-015 8.0291 0.4195 -0.407955 -5.09306 2.68789 -3.55271e-015 9.9351 -2.2114 -0.407955 -5.09306 2.6879 7.10543e-015 22.3885 -0.4656 -0.650381 0.375028 -3.69262 -0.0001 12.643 3.4389 7.27378 -0.772169 -1.57623 2.2603 21.606 7.4023 2.64936 -2.03405 -29.7928 13.5163 -1.1332 -5.0146 44.7372 -43.4382 23.6373 -0.0995 -28.05 -0.2431 -6.92331 -62.2305 14.9108 0.0679 -23.3996 -0.1402 6.81948 9.3095 21.734 0.7932 -9.069 2.5189 -3.03456 13.5254 -2.18695 -0.8272 -3.3923 0.5977 -35.3101 20.4536 4.66626 -0.5649 -2.3158 0.4082 -36.3769 20.9631 4.99191 0.9159 -9.2044 0.2193 -0.996379 1.76103 1.16816 0.0117 -4.1944 -0.0248 -42.7759 24.7434 5.54254 0.0071 -2.3249 -0.0142 -8.90563 5.62395 -0.442368 0.6113 -8.7231 -2.0637 -6.57531 6.72146 5.05121 -0.1927 -3.8059 -0.2383 -13.878 9.679 -0.67268 -0.1091 -2.1688 -0.1362 -15.2672 10.6403 -0.610737 -0.6151 -8.0947 -3.5641 13.7576 -0.961925 8.77844 -0.4882 -2.341 -0.6462 -17.7274 12.2688 -1.06163 -0.3575 -1.7167 -0.4742 -8.74829 6.03008 -1.00501 -1.42 -1.8761 1.4223 -11.555 -16.7281 -49.4134 -1.1471 -3.4929 2.6334 -4.52943 0.27342 0.313159 -0.823 -2.3 1.6571 8.52301 10.6856 -3.07478 -2.2603 21.606 7.4023 -8.34489 -1.45764 37.3982 -13.5187 -1.1334 -5.0155 -87.0738 -41.8821 -54.6065 0.0994 -28.0499 -0.2431 36.1266 -51.0709 9.34946 -0.0679 -23.3996 -0.1402 -32.5023 19.1114 -43.4856 -0.7932 -9.0691 2.5189 11.6368 14.2571 0.992496 0.8272 -3.3923 0.5977 44.2053 13.1412 -6.09325 0.565 -2.3158 0.4082 45.315 13.3842 -6.36416 -0.916 -9.2044 0.2193 6.62922 3.2919 -1.26459 -0.0117 -4.1944 -0.0248 52.2887 15.6021 -6.38054 -0.0071 -2.3249 -0.0142 15.3241 5.19006 -0.3318 -0.6113 -8.7231 -2.0637 12.9181 7.01763 -5.53922 0.1927 -3.8059 -0.2383 21.0811 8.13131 -0.314298 0.1091 -2.1688 -0.1362 22.6695 8.72353 -0.45774 0.6151 -8.0947 -3.564 -8.93112 3.95482 -6.74808 0.4882 -2.341 -0.6462 25.5113 9.65008 0.0134969 0.3574 -1.7166 -0.4742 15.2214 5.78322 0.529438 1.4199 -1.8761 1.4221 9.86451 -19.8501 47.9728 1.1472 -3.4929 2.6336 1.41032 -0.443878 -1.52 0.8229 -2.3 1.6571 -7.17994 14.5066 5.5902 -9.412 3.9771 -0.7758 -44.3266 -8.30479 -5.99765 -0.7531 -40.938 0 169.656 25.3954 -152.225 0 -40.1986 0 -2.86593 -5.6827 46.5925 0 -4.4182 9.239 -13.1874 27.8111 -7.16792 9.4119 3.9773 -0.7758 50.9163 -14.2086 23.8177 0.7532 -40.9383 0 179.538 26.8142 178.159 7.10543e-015 -40.1986 -7.10543e-015 8.34253 -12.1069 -42.4524 0 -4.4182 9.239 9.75239 54.5061 17.4337 
21.4922 -65.6776 -49.0153 0 0 -0 3.55271e-015 78.7191 0 12.6399 9.96683 -54.6166 0 8.7983 -4.7612 -0.293105 -2.41139 1.248 0 8.0291 0.4195 -0.534233 -4.82859 2.48696 0 9.9351 -2.2114 -0.534231 -4.82859 2.48695 0 22.3885 -0.4656 -1.06924 0.423755 -3.30345 -0.0001 12.643 3.4389 7.68948 -1.03705 -1.10096 2.2603 21.606 7.4023 2.29374 -2.03939 -29.5879 13.5163 -1.1332 -5.0146 45.5312 -43.1585 24.0163 -0.0995 -28.05 -0.2431 -8.42883 -63.5594 14.1296 0.0679 -23.3996 -0.1402 6.94899 9.97186 21.207 0.7932 -9.069 2.5189 -3.0338 13.5249 -2.18694 -0.8272 -3.3923 0.5977 -35.307 20.4521 4.66534 -0.5649 -2.3158 0.4082 -36.371 20.9603 4.9901 0.9159 -9.2044 0.2193 -0.996704 1.75931 1.16575 0.0117 -4.1944 -0.0248 -42.772 24.7416 5.54123 0.0071 -2.3249 -0.0142 -8.90297 5.62226 -0.442364 0.6113 -8.7231 -2.0637 -6.57515 6.71886 5.04735 -0.1927 -3.8059 -0.2383 -13.8762 9.6777 -0.672746 -0.1091 -2.1688 -0.1362 -15.2644 10.6384 -0.610888 -0.6151 -8.0947 -3.5641 13.7181 -0.950769 8.76653 -0.4882 -2.341 -0.6462 -17.7234 12.266 -1.06181 -0.3575 -1.7167 -0.4742 -8.74828 6.03079 -1.00715 -1.42 -1.8761 1.4223 -11.524 -16.702 -49.3585 -1.1471 -3.4929 2.6334 -4.52482 0.272285 0.31338 -0.823 -2.3 1.6571 8.5192 10.6812 -3.0731 -2.2603 21.606 7.4023 -8.67062 -1.52113 37.0918 -13.5187 -1.1334 -5.0155 -86.6975 -41.8264 -54.1807 0.0994 -28.0499 -0.2431 36.12 -53.0562 9.35448 -0.0679 -23.3996 -0.1402 -32.6528 19.8756 -43.0751 -0.7932 -9.0691 2.5189 11.6233 14.2305 0.989342 0.8272 -3.3923 0.5977 44.1189 13.1221 -6.07231 0.565 -2.3158 0.4082 45.2431 13.3687 -6.34642 -0.916001 -9.2044 0.2193 6.62921 3.29189 -1.26458 -0.0117 -4.1944 -0.0248 52.1832 15.5797 -6.35454 -0.0071 -2.3249 -0.0142 15.311 5.18571 -0.330931 -0.6113 -8.7231 -2.0637 12.9019 7.00509 -5.52748 0.1927 -3.8059 -0.2383 21.0533 8.12091 -0.311919 0.1091 -2.1688 -0.1362 22.6316 8.70945 -0.454105 0.6151 -8.0947 -3.564 -8.90114 3.95011 -6.73155 0.4882 -2.341 -0.6462 25.4672 9.63388 0.0172188 0.3574 -1.7166 -0.4742 15.2084 5.7782 0.529644 1.4199 -1.8761 1.4221 9.82426 -19.8097 47.8874 1.1472 -3.4929 2.6336 1.40614 -0.445434 -1.51571 0.8229 -2.3 1.6571 -7.17124 14.4914 5.58304 -9.412 3.9771 -0.7758 -44.8581 -8.36063 -5.94342 -0.7531 -40.938 0 169.654 25.4485 -152.244 7.10543e-015 -40.1986 0 -3.09778 -5.26548 46.9076 -1.42109e-014 -4.4182 9.239 -13.1554 27.5973 -7.19561 9.4119 3.9773 -0.7758 51.0655 -14.3295 23.5669 0.7532 -40.9383 -7.10543e-015 179.537 26.858 178.075 3.55271e-015 -40.1986 7.10543e-015 8.47831 -12.0257 -42.6164 -3.55272e-015 -4.4182 9.239 9.61605 54.3918 17.0925 
